<mxfile host="app.diagrams.net" modified="2023-10-31T12:14:43.991Z" agent="Mozilla/5.0 (Windows NT 10.0; Win64; x64) AppleWebKit/537.36 (KHTML, like Gecko) Chrome/118.0.0.0 Safari/537.36" etag="AU2-CLEiPBSzs_nd-BBC" version="22.0.8" type="device">
  <diagram name="Page-1" id="bITDkZwMjfc94gMa8NzO">
    <mxGraphModel dx="1187" dy="1283" grid="1" gridSize="10" guides="1" tooltips="1" connect="1" arrows="1" fold="1" page="1" pageScale="1" pageWidth="1169" pageHeight="827" math="0" shadow="0">
      <root>
        <mxCell id="0" />
        <mxCell id="1" parent="0" />
        <mxCell id="Kc1Ey1qXZjIb0-rs8Q-b-39" value="" style="rounded=0;whiteSpace=wrap;html=1;fontSize=16;" parent="1" vertex="1">
          <mxGeometry y="960" width="1160" height="520" as="geometry" />
        </mxCell>
        <mxCell id="Kc1Ey1qXZjIb0-rs8Q-b-1" value="" style="rounded=0;whiteSpace=wrap;html=1;fontSize=16;" parent="1" vertex="1">
          <mxGeometry width="1160" height="80" as="geometry" />
        </mxCell>
        <mxCell id="Kc1Ey1qXZjIb0-rs8Q-b-2" value="Logo" style="rounded=1;whiteSpace=wrap;html=1;fontSize=16;" parent="1" vertex="1">
          <mxGeometry x="30" y="15" width="110" height="50" as="geometry" />
        </mxCell>
        <mxCell id="Kc1Ey1qXZjIb0-rs8Q-b-118" value="" style="rounded=0;whiteSpace=wrap;html=1;fontSize=16;" parent="1" vertex="1">
          <mxGeometry x="940" y="10" width="190" height="60" as="geometry" />
        </mxCell>
        <mxCell id="Kc1Ey1qXZjIb0-rs8Q-b-3" value="" style="rounded=1;whiteSpace=wrap;html=1;fontSize=16;" parent="1" vertex="1">
          <mxGeometry x="260" y="10" width="550" height="60" as="geometry" />
        </mxCell>
        <mxCell id="Kc1Ey1qXZjIb0-rs8Q-b-4" value="Home" style="rounded=0;whiteSpace=wrap;html=1;fontSize=16;" parent="1" vertex="1">
          <mxGeometry x="280" y="20" width="100" height="40" as="geometry" />
        </mxCell>
        <mxCell id="Kc1Ey1qXZjIb0-rs8Q-b-6" value="Dishes" style="rounded=0;whiteSpace=wrap;html=1;fontSize=16;" parent="1" vertex="1">
          <mxGeometry x="390" y="20" width="100" height="40" as="geometry" />
        </mxCell>
        <mxCell id="Kc1Ey1qXZjIb0-rs8Q-b-8" value="FeedBack" style="rounded=0;whiteSpace=wrap;html=1;fontSize=16;" parent="1" vertex="1">
          <mxGeometry x="500" y="20" width="100" height="40" as="geometry" />
        </mxCell>
        <mxCell id="Kc1Ey1qXZjIb0-rs8Q-b-9" value="About" style="rounded=0;whiteSpace=wrap;html=1;fontSize=16;" parent="1" vertex="1">
          <mxGeometry x="610" y="20" width="100" height="40" as="geometry" />
        </mxCell>
        <mxCell id="Kc1Ey1qXZjIb0-rs8Q-b-10" value="S" style="ellipse;whiteSpace=wrap;html=1;aspect=fixed;fontSize=16;" parent="1" vertex="1">
          <mxGeometry x="750" y="15" width="50" height="50" as="geometry" />
        </mxCell>
        <mxCell id="Kc1Ey1qXZjIb0-rs8Q-b-12" value="I" style="ellipse;whiteSpace=wrap;html=1;aspect=fixed;fontSize=16;" parent="1" vertex="1">
          <mxGeometry x="1070" y="15" width="50" height="50" as="geometry" />
        </mxCell>
        <mxCell id="Kc1Ey1qXZjIb0-rs8Q-b-13" value="F" style="ellipse;whiteSpace=wrap;html=1;aspect=fixed;fontSize=16;" parent="1" vertex="1">
          <mxGeometry x="1010" y="15" width="50" height="50" as="geometry" />
        </mxCell>
        <mxCell id="Kc1Ey1qXZjIb0-rs8Q-b-14" value="X" style="ellipse;whiteSpace=wrap;html=1;aspect=fixed;fontSize=16;" parent="1" vertex="1">
          <mxGeometry x="950" y="15" width="50" height="50" as="geometry" />
        </mxCell>
        <mxCell id="Kc1Ey1qXZjIb0-rs8Q-b-15" value="" style="rounded=0;whiteSpace=wrap;html=1;fontSize=16;" parent="1" vertex="1">
          <mxGeometry y="80" width="1160" height="440" as="geometry" />
        </mxCell>
        <mxCell id="Kc1Ey1qXZjIb0-rs8Q-b-16" value="" style="rounded=0;whiteSpace=wrap;html=1;fontSize=16;" parent="1" vertex="1">
          <mxGeometry y="1480" width="1160" height="160" as="geometry" />
        </mxCell>
        <mxCell id="Kc1Ey1qXZjIb0-rs8Q-b-18" value="" style="rounded=0;whiteSpace=wrap;html=1;fontSize=16;" parent="1" vertex="1">
          <mxGeometry x="470" y="100" width="670" height="400" as="geometry" />
        </mxCell>
        <mxCell id="Kc1Ey1qXZjIb0-rs8Q-b-17" value="" style="ellipse;whiteSpace=wrap;html=1;aspect=fixed;fontSize=16;" parent="1" vertex="1">
          <mxGeometry x="740" y="115" width="360" height="360" as="geometry" />
        </mxCell>
        <mxCell id="Kc1Ey1qXZjIb0-rs8Q-b-19" value="" style="ellipse;whiteSpace=wrap;html=1;aspect=fixed;fontSize=16;" parent="1" vertex="1">
          <mxGeometry x="620" y="115" width="360" height="360" as="geometry" />
        </mxCell>
        <mxCell id="Kc1Ey1qXZjIb0-rs8Q-b-20" value="" style="ellipse;whiteSpace=wrap;html=1;aspect=fixed;fontSize=16;" parent="1" vertex="1">
          <mxGeometry x="520" y="115" width="360" height="360" as="geometry" />
        </mxCell>
        <mxCell id="Kc1Ey1qXZjIb0-rs8Q-b-22" value="" style="rounded=0;whiteSpace=wrap;html=1;fontSize=16;" parent="1" vertex="1">
          <mxGeometry x="20" y="100" width="420" height="400" as="geometry" />
        </mxCell>
        <mxCell id="Kc1Ey1qXZjIb0-rs8Q-b-23" value="Welcoming" style="rounded=1;whiteSpace=wrap;html=1;fontSize=16;" parent="1" vertex="1">
          <mxGeometry x="40" y="180" width="350" height="60" as="geometry" />
        </mxCell>
        <mxCell id="Kc1Ey1qXZjIb0-rs8Q-b-24" value="Text/Details Area" style="rounded=0;whiteSpace=wrap;html=1;fontSize=16;" parent="1" vertex="1">
          <mxGeometry x="40" y="265" width="350" height="215" as="geometry" />
        </mxCell>
        <mxCell id="Kc1Ey1qXZjIb0-rs8Q-b-25" value="Dishes Category" style="rounded=0;whiteSpace=wrap;html=1;fontSize=16;" parent="1" vertex="1">
          <mxGeometry y="520" width="1160" height="440" as="geometry" />
        </mxCell>
        <mxCell id="Kc1Ey1qXZjIb0-rs8Q-b-26" value="Desserts" style="whiteSpace=wrap;html=1;aspect=fixed;fontSize=16;" parent="1" vertex="1">
          <mxGeometry x="70" y="590" width="270" height="270" as="geometry" />
        </mxCell>
        <mxCell id="Kc1Ey1qXZjIb0-rs8Q-b-33" value="Moroccan Dishes" style="whiteSpace=wrap;html=1;aspect=fixed;fontSize=16;" parent="1" vertex="1">
          <mxGeometry x="450" y="590" width="270" height="270" as="geometry" />
        </mxCell>
        <mxCell id="Kc1Ey1qXZjIb0-rs8Q-b-34" value="Classic Restaurant Food" style="whiteSpace=wrap;html=1;aspect=fixed;fontSize=16;" parent="1" vertex="1">
          <mxGeometry x="820" y="590" width="270" height="270" as="geometry" />
        </mxCell>
        <mxCell id="Kc1Ey1qXZjIb0-rs8Q-b-35" value="Check The Menu" style="rounded=1;whiteSpace=wrap;html=1;fontSize=16;" parent="1" vertex="1">
          <mxGeometry x="70" y="880" width="270" height="60" as="geometry" />
        </mxCell>
        <mxCell id="Kc1Ey1qXZjIb0-rs8Q-b-37" value="Check The Menu" style="rounded=1;whiteSpace=wrap;html=1;fontSize=16;" parent="1" vertex="1">
          <mxGeometry x="820" y="880" width="270" height="60" as="geometry" />
        </mxCell>
        <mxCell id="Kc1Ey1qXZjIb0-rs8Q-b-38" value="Check The Menu" style="rounded=1;whiteSpace=wrap;html=1;fontSize=16;" parent="1" vertex="1">
          <mxGeometry x="450" y="880" width="270" height="60" as="geometry" />
        </mxCell>
        <mxCell id="Kc1Ey1qXZjIb0-rs8Q-b-40" value="Describtion of The Service" style="rounded=1;whiteSpace=wrap;html=1;fontSize=16;" parent="1" vertex="1">
          <mxGeometry x="30" y="980" width="1090" height="180" as="geometry" />
        </mxCell>
        <mxCell id="Kc1Ey1qXZjIb0-rs8Q-b-42" value="" style="rounded=0;whiteSpace=wrap;html=1;fontSize=16;" parent="1" vertex="1">
          <mxGeometry x="35" y="1190" width="450" height="80" as="geometry" />
        </mxCell>
        <mxCell id="Kc1Ey1qXZjIb0-rs8Q-b-43" value="" style="rounded=0;whiteSpace=wrap;html=1;fontSize=16;" parent="1" vertex="1">
          <mxGeometry x="485" y="1190" width="640" height="280" as="geometry" />
        </mxCell>
        <mxCell id="Kc1Ey1qXZjIb0-rs8Q-b-45" value="Pic of Member" style="ellipse;whiteSpace=wrap;html=1;aspect=fixed;fontSize=16;" parent="1" vertex="1">
          <mxGeometry x="45" y="1190" width="80" height="80" as="geometry" />
        </mxCell>
        <mxCell id="Kc1Ey1qXZjIb0-rs8Q-b-46" value="Pic of Member" style="ellipse;whiteSpace=wrap;html=1;aspect=fixed;fontSize=16;" parent="1" vertex="1">
          <mxGeometry x="265" y="1190" width="80" height="80" as="geometry" />
        </mxCell>
        <mxCell id="Kc1Ey1qXZjIb0-rs8Q-b-47" value="Pic of Member" style="ellipse;whiteSpace=wrap;html=1;aspect=fixed;fontSize=16;" parent="1" vertex="1">
          <mxGeometry x="155" y="1190" width="80" height="80" as="geometry" />
        </mxCell>
        <mxCell id="Kc1Ey1qXZjIb0-rs8Q-b-48" value="Pic of Member" style="ellipse;whiteSpace=wrap;html=1;aspect=fixed;fontSize=16;" parent="1" vertex="1">
          <mxGeometry x="375" y="1190" width="80" height="80" as="geometry" />
        </mxCell>
        <mxCell id="Kc1Ey1qXZjIb0-rs8Q-b-49" value="Text" style="rounded=1;whiteSpace=wrap;html=1;fontSize=16;" parent="1" vertex="1">
          <mxGeometry x="40" y="1280" width="430" height="190" as="geometry" />
        </mxCell>
        <mxCell id="Kc1Ey1qXZjIb0-rs8Q-b-50" value="Picture of Service" style="rounded=1;whiteSpace=wrap;html=1;fontSize=16;" parent="1" vertex="1">
          <mxGeometry x="510" y="1200" width="255" height="130" as="geometry" />
        </mxCell>
        <mxCell id="Kc1Ey1qXZjIb0-rs8Q-b-51" value="Picture of Service" style="rounded=1;whiteSpace=wrap;html=1;fontSize=16;" parent="1" vertex="1">
          <mxGeometry x="785" y="1200" width="330" height="260" as="geometry" />
        </mxCell>
        <mxCell id="Kc1Ey1qXZjIb0-rs8Q-b-52" value="Picture Of Service" style="rounded=1;whiteSpace=wrap;html=1;fontSize=16;" parent="1" vertex="1">
          <mxGeometry x="510" y="1345" width="255" height="115" as="geometry" />
        </mxCell>
        <mxCell id="Kc1Ey1qXZjIb0-rs8Q-b-54" value="Motto Of the Restaurant" style="rounded=0;whiteSpace=wrap;html=1;fontSize=16;" parent="1" vertex="1">
          <mxGeometry x="240" y="990" width="730" height="60" as="geometry" />
        </mxCell>
        <mxCell id="Kc1Ey1qXZjIb0-rs8Q-b-56" value="Logo" style="ellipse;whiteSpace=wrap;html=1;aspect=fixed;fontSize=16;" parent="1" vertex="1">
          <mxGeometry x="985" y="1495" width="130" height="130" as="geometry" />
        </mxCell>
        <mxCell id="Kc1Ey1qXZjIb0-rs8Q-b-79" style="edgeStyle=none;curved=1;rounded=0;orthogonalLoop=1;jettySize=auto;html=1;exitX=1;exitY=0.5;exitDx=0;exitDy=0;entryX=0;entryY=0.5;entryDx=0;entryDy=0;fontSize=12;startSize=8;endSize=8;fillColor=#0050ef;strokeColor=#001DBC;startArrow=classic;startFill=1;" parent="1" source="Kc1Ey1qXZjIb0-rs8Q-b-58" target="Kc1Ey1qXZjIb0-rs8Q-b-59" edge="1">
          <mxGeometry relative="1" as="geometry" />
        </mxCell>
        <mxCell id="Kc1Ey1qXZjIb0-rs8Q-b-58" value="Contact Us" style="rounded=1;whiteSpace=wrap;html=1;fontSize=16;" parent="1" vertex="1">
          <mxGeometry x="360" y="1495" width="275" height="135" as="geometry" />
        </mxCell>
        <mxCell id="Kc1Ey1qXZjIb0-rs8Q-b-59" value="Localisation &amp;amp; Adress Info" style="rounded=1;whiteSpace=wrap;html=1;fontSize=16;" parent="1" vertex="1">
          <mxGeometry x="662.5" y="1495" width="275" height="135" as="geometry" />
        </mxCell>
        <mxCell id="Kc1Ey1qXZjIb0-rs8Q-b-80" style="edgeStyle=none;curved=1;rounded=0;orthogonalLoop=1;jettySize=auto;html=1;exitX=1;exitY=0.5;exitDx=0;exitDy=0;entryX=0;entryY=0.5;entryDx=0;entryDy=0;fontSize=12;startSize=8;endSize=8;fillColor=#0050ef;strokeColor=#001DBC;startArrow=classic;startFill=1;" parent="1" source="Kc1Ey1qXZjIb0-rs8Q-b-61" target="Kc1Ey1qXZjIb0-rs8Q-b-58" edge="1">
          <mxGeometry relative="1" as="geometry" />
        </mxCell>
        <mxCell id="Kc1Ey1qXZjIb0-rs8Q-b-61" value="GOOGLE MAP" style="rounded=0;whiteSpace=wrap;html=1;fontSize=16;" parent="1" vertex="1">
          <mxGeometry x="10" y="1490" width="330" height="140" as="geometry" />
        </mxCell>
        <mxCell id="Kc1Ey1qXZjIb0-rs8Q-b-62" value="" style="endArrow=baseDash;startArrow=classic;html=1;rounded=0;fontSize=12;startSize=8;endSize=8;curved=1;entryX=1;entryY=0.5;entryDx=0;entryDy=0;exitX=1;exitY=0.5;exitDx=0;exitDy=0;fillColor=#b0e3e6;strokeColor=#0e8088;endFill=0;" parent="1" source="Kc1Ey1qXZjIb0-rs8Q-b-18" target="Kc1Ey1qXZjIb0-rs8Q-b-15" edge="1">
          <mxGeometry width="50" height="50" relative="1" as="geometry">
            <mxPoint x="630" y="500" as="sourcePoint" />
            <mxPoint x="680" y="450" as="targetPoint" />
          </mxGeometry>
        </mxCell>
        <mxCell id="Kc1Ey1qXZjIb0-rs8Q-b-63" value="" style="endArrow=classic;startArrow=baseDash;html=1;rounded=0;fontSize=12;startSize=8;endSize=8;curved=1;exitX=0.5;exitY=1;exitDx=0;exitDy=0;entryX=0.165;entryY=0.998;entryDx=0;entryDy=0;entryPerimeter=0;fillColor=#b0e3e6;strokeColor=#0e8088;startFill=0;" parent="1" source="Kc1Ey1qXZjIb0-rs8Q-b-15" target="Kc1Ey1qXZjIb0-rs8Q-b-18" edge="1">
          <mxGeometry width="50" height="50" relative="1" as="geometry">
            <mxPoint x="630" y="500" as="sourcePoint" />
            <mxPoint x="680" y="450" as="targetPoint" />
          </mxGeometry>
        </mxCell>
        <mxCell id="Kc1Ey1qXZjIb0-rs8Q-b-64" value="" style="endArrow=classic;startArrow=baseDash;html=1;rounded=0;fontSize=12;startSize=8;endSize=8;curved=1;exitX=0.18;exitY=-0.001;exitDx=0;exitDy=0;exitPerimeter=0;entryX=0.454;entryY=1.009;entryDx=0;entryDy=0;entryPerimeter=0;fillColor=#b0e3e6;strokeColor=#0e8088;startFill=0;" parent="1" source="Kc1Ey1qXZjIb0-rs8Q-b-25" target="Kc1Ey1qXZjIb0-rs8Q-b-22" edge="1">
          <mxGeometry width="50" height="50" relative="1" as="geometry">
            <mxPoint x="630" y="500" as="sourcePoint" />
            <mxPoint x="680" y="450" as="targetPoint" />
          </mxGeometry>
        </mxCell>
        <mxCell id="Kc1Ey1qXZjIb0-rs8Q-b-65" value="" style="endArrow=baseDash;startArrow=classic;html=1;rounded=0;fontSize=12;startSize=8;endSize=8;curved=1;entryX=0.75;entryY=0;entryDx=0;entryDy=0;exitX=0.561;exitY=-0.003;exitDx=0;exitDy=0;exitPerimeter=0;fillColor=#e51400;strokeColor=#B20000;endFill=0;" parent="1" source="Kc1Ey1qXZjIb0-rs8Q-b-25" target="Kc1Ey1qXZjIb0-rs8Q-b-33" edge="1">
          <mxGeometry width="50" height="50" relative="1" as="geometry">
            <mxPoint x="630" y="500" as="sourcePoint" />
            <mxPoint x="680" y="450" as="targetPoint" />
          </mxGeometry>
        </mxCell>
        <mxCell id="Kc1Ey1qXZjIb0-rs8Q-b-66" value="" style="endArrow=baseDash;startArrow=classic;html=1;rounded=0;fontSize=12;startSize=8;endSize=8;curved=1;entryX=0.25;entryY=0;entryDx=0;entryDy=0;exitX=0.809;exitY=0.004;exitDx=0;exitDy=0;exitPerimeter=0;fillColor=#e51400;strokeColor=#B20000;endFill=0;" parent="1" source="Kc1Ey1qXZjIb0-rs8Q-b-26" target="Kc1Ey1qXZjIb0-rs8Q-b-25" edge="1">
          <mxGeometry width="50" height="50" relative="1" as="geometry">
            <mxPoint x="630" y="690" as="sourcePoint" />
            <mxPoint x="680" y="640" as="targetPoint" />
          </mxGeometry>
        </mxCell>
        <mxCell id="Kc1Ey1qXZjIb0-rs8Q-b-67" value="" style="endArrow=baseDash;startArrow=classic;html=1;rounded=0;fontSize=12;startSize=8;endSize=8;curved=1;entryX=0.811;entryY=0.004;entryDx=0;entryDy=0;entryPerimeter=0;exitX=0.445;exitY=0;exitDx=0;exitDy=0;exitPerimeter=0;fillColor=#e51400;strokeColor=#B20000;startFill=1;endFill=0;" parent="1" source="Kc1Ey1qXZjIb0-rs8Q-b-34" target="Kc1Ey1qXZjIb0-rs8Q-b-25" edge="1">
          <mxGeometry width="50" height="50" relative="1" as="geometry">
            <mxPoint x="630" y="690" as="sourcePoint" />
            <mxPoint x="680" y="640" as="targetPoint" />
          </mxGeometry>
        </mxCell>
        <mxCell id="Kc1Ey1qXZjIb0-rs8Q-b-68" value="" style="endArrow=classic;startArrow=baseDash;html=1;rounded=0;fontSize=12;startSize=8;endSize=8;curved=1;exitX=0;exitY=0.5;exitDx=0;exitDy=0;entryX=0.003;entryY=0.545;entryDx=0;entryDy=0;entryPerimeter=0;fillColor=#dae8fc;strokeColor=#6c8ebf;startFill=0;" parent="1" source="Kc1Ey1qXZjIb0-rs8Q-b-25" target="Kc1Ey1qXZjIb0-rs8Q-b-26" edge="1">
          <mxGeometry width="50" height="50" relative="1" as="geometry">
            <mxPoint x="630" y="690" as="sourcePoint" />
            <mxPoint x="680" y="640" as="targetPoint" />
          </mxGeometry>
        </mxCell>
        <mxCell id="Kc1Ey1qXZjIb0-rs8Q-b-69" value="" style="endArrow=classic;startArrow=classic;html=1;rounded=0;fontSize=12;startSize=8;endSize=8;curved=1;exitX=1;exitY=0.5;exitDx=0;exitDy=0;entryX=0;entryY=0.5;entryDx=0;entryDy=0;fillColor=#0050ef;strokeColor=#001DBC;" parent="1" source="Kc1Ey1qXZjIb0-rs8Q-b-26" target="Kc1Ey1qXZjIb0-rs8Q-b-33" edge="1">
          <mxGeometry width="50" height="50" relative="1" as="geometry">
            <mxPoint x="630" y="690" as="sourcePoint" />
            <mxPoint x="680" y="640" as="targetPoint" />
          </mxGeometry>
        </mxCell>
        <mxCell id="Kc1Ey1qXZjIb0-rs8Q-b-70" value="" style="endArrow=classic;startArrow=classic;html=1;rounded=0;fontSize=12;startSize=8;endSize=8;curved=1;exitX=1;exitY=0.5;exitDx=0;exitDy=0;fillColor=#0050ef;strokeColor=#001DBC;" parent="1" edge="1">
          <mxGeometry width="50" height="50" relative="1" as="geometry">
            <mxPoint x="720" y="720" as="sourcePoint" />
            <mxPoint x="820" y="720" as="targetPoint" />
          </mxGeometry>
        </mxCell>
        <mxCell id="Kc1Ey1qXZjIb0-rs8Q-b-71" value="" style="endArrow=baseDash;startArrow=classic;html=1;rounded=0;fontSize=12;startSize=8;endSize=8;curved=1;exitX=0;exitY=0.5;exitDx=0;exitDy=0;entryX=0.003;entryY=0.545;entryDx=0;entryDy=0;entryPerimeter=0;fillColor=#dae8fc;strokeColor=#6c8ebf;endFill=0;" parent="1" edge="1">
          <mxGeometry width="50" height="50" relative="1" as="geometry">
            <mxPoint x="1089" y="733" as="sourcePoint" />
            <mxPoint x="1160" y="730" as="targetPoint" />
          </mxGeometry>
        </mxCell>
        <mxCell id="Kc1Ey1qXZjIb0-rs8Q-b-72" value="" style="endArrow=baseDash;startArrow=classic;html=1;rounded=0;fontSize=12;startSize=8;endSize=8;curved=1;entryX=0.25;entryY=1;entryDx=0;entryDy=0;exitX=0.825;exitY=0.979;exitDx=0;exitDy=0;exitPerimeter=0;fillColor=#f5f5f5;strokeColor=#666666;startFill=1;endFill=0;" parent="1" source="Kc1Ey1qXZjIb0-rs8Q-b-35" target="Kc1Ey1qXZjIb0-rs8Q-b-25" edge="1">
          <mxGeometry width="50" height="50" relative="1" as="geometry">
            <mxPoint x="630" y="860" as="sourcePoint" />
            <mxPoint x="680" y="810" as="targetPoint" />
          </mxGeometry>
        </mxCell>
        <mxCell id="Kc1Ey1qXZjIb0-rs8Q-b-74" value="" style="endArrow=classic;startArrow=baseDash;html=1;rounded=0;fontSize=12;startSize=8;endSize=8;curved=1;exitX=0.5;exitY=1;exitDx=0;exitDy=0;entryX=0.5;entryY=1;entryDx=0;entryDy=0;fillColor=#f5f5f5;strokeColor=#666666;startFill=0;" parent="1" source="Kc1Ey1qXZjIb0-rs8Q-b-25" target="Kc1Ey1qXZjIb0-rs8Q-b-38" edge="1">
          <mxGeometry width="50" height="50" relative="1" as="geometry">
            <mxPoint x="630" y="860" as="sourcePoint" />
            <mxPoint x="680" y="810" as="targetPoint" />
          </mxGeometry>
        </mxCell>
        <mxCell id="Kc1Ey1qXZjIb0-rs8Q-b-75" value="" style="endArrow=classic;startArrow=baseDash;html=1;rounded=0;fontSize=12;startSize=8;endSize=8;curved=1;entryX=0.5;entryY=1;entryDx=0;entryDy=0;exitX=0.823;exitY=1.012;exitDx=0;exitDy=0;exitPerimeter=0;fillColor=#f5f5f5;strokeColor=#666666;endFill=1;startFill=0;" parent="1" source="Kc1Ey1qXZjIb0-rs8Q-b-25" target="Kc1Ey1qXZjIb0-rs8Q-b-37" edge="1">
          <mxGeometry width="50" height="50" relative="1" as="geometry">
            <mxPoint x="630" y="860" as="sourcePoint" />
            <mxPoint x="680" y="810" as="targetPoint" />
          </mxGeometry>
        </mxCell>
        <mxCell id="Kc1Ey1qXZjIb0-rs8Q-b-76" value="" style="endArrow=baseDash;startArrow=classic;html=1;rounded=0;fontSize=12;startSize=8;endSize=8;curved=1;entryX=0.75;entryY=0;entryDx=0;entryDy=0;fillColor=#b1ddf0;strokeColor=#10739e;endFill=0;" parent="1" source="Kc1Ey1qXZjIb0-rs8Q-b-18" target="Kc1Ey1qXZjIb0-rs8Q-b-15" edge="1">
          <mxGeometry width="50" height="50" relative="1" as="geometry">
            <mxPoint x="630" y="460" as="sourcePoint" />
            <mxPoint x="680" y="410" as="targetPoint" />
          </mxGeometry>
        </mxCell>
        <mxCell id="Kc1Ey1qXZjIb0-rs8Q-b-77" value="" style="endArrow=classic;startArrow=classic;html=1;rounded=0;fontSize=12;startSize=8;endSize=8;curved=1;entryX=1;entryY=0.5;entryDx=0;entryDy=0;exitX=0;exitY=0.5;exitDx=0;exitDy=0;fillColor=#0050ef;strokeColor=#001DBC;" parent="1" source="Kc1Ey1qXZjIb0-rs8Q-b-18" target="Kc1Ey1qXZjIb0-rs8Q-b-22" edge="1">
          <mxGeometry width="50" height="50" relative="1" as="geometry">
            <mxPoint x="630" y="460" as="sourcePoint" />
            <mxPoint x="680" y="410" as="targetPoint" />
          </mxGeometry>
        </mxCell>
        <mxCell id="Kc1Ey1qXZjIb0-rs8Q-b-78" value="" style="endArrow=classic;startArrow=classic;html=1;rounded=0;fontSize=12;startSize=8;endSize=8;curved=1;entryX=0.5;entryY=1;entryDx=0;entryDy=0;exitX=0.145;exitY=0.005;exitDx=0;exitDy=0;exitPerimeter=0;fillColor=#0050ef;strokeColor=#001DBC;" parent="1" source="Kc1Ey1qXZjIb0-rs8Q-b-43" target="Kc1Ey1qXZjIb0-rs8Q-b-40" edge="1">
          <mxGeometry width="50" height="50" relative="1" as="geometry">
            <mxPoint x="630" y="1220" as="sourcePoint" />
            <mxPoint x="680" y="1170" as="targetPoint" />
          </mxGeometry>
        </mxCell>
        <mxCell id="Kc1Ey1qXZjIb0-rs8Q-b-81" value="" style="endArrow=classic;startArrow=classic;html=1;rounded=0;fontSize=12;startSize=8;endSize=8;curved=1;exitX=0.5;exitY=0;exitDx=0;exitDy=0;entryX=0.5;entryY=1;entryDx=0;entryDy=0;fillColor=#0050ef;strokeColor=#001DBC;" parent="1" source="Kc1Ey1qXZjIb0-rs8Q-b-38" target="Kc1Ey1qXZjIb0-rs8Q-b-33" edge="1">
          <mxGeometry width="50" height="50" relative="1" as="geometry">
            <mxPoint x="630" y="830" as="sourcePoint" />
            <mxPoint x="680" y="780" as="targetPoint" />
          </mxGeometry>
        </mxCell>
        <mxCell id="Kc1Ey1qXZjIb0-rs8Q-b-82" value="" style="endArrow=none;dashed=1;html=1;dashPattern=1 3;strokeWidth=2;rounded=0;fontSize=12;startSize=8;endSize=8;curved=1;entryX=0;entryY=1;entryDx=0;entryDy=0;exitX=0;exitY=1;exitDx=0;exitDy=0;" parent="1" source="Kc1Ey1qXZjIb0-rs8Q-b-37" target="Kc1Ey1qXZjIb0-rs8Q-b-34" edge="1">
          <mxGeometry width="50" height="50" relative="1" as="geometry">
            <mxPoint x="630" y="800" as="sourcePoint" />
            <mxPoint x="680" y="750" as="targetPoint" />
          </mxGeometry>
        </mxCell>
        <mxCell id="Kc1Ey1qXZjIb0-rs8Q-b-84" value="" style="endArrow=none;dashed=1;html=1;dashPattern=1 3;strokeWidth=2;rounded=0;fontSize=12;startSize=8;endSize=8;curved=1;entryX=1;entryY=1;entryDx=0;entryDy=0;exitX=1;exitY=1;exitDx=0;exitDy=0;" parent="1" source="Kc1Ey1qXZjIb0-rs8Q-b-37" target="Kc1Ey1qXZjIb0-rs8Q-b-34" edge="1">
          <mxGeometry width="50" height="50" relative="1" as="geometry">
            <mxPoint x="630" y="800" as="sourcePoint" />
            <mxPoint x="680" y="750" as="targetPoint" />
          </mxGeometry>
        </mxCell>
        <mxCell id="Kc1Ey1qXZjIb0-rs8Q-b-85" value="" style="endArrow=none;dashed=1;html=1;dashPattern=1 3;strokeWidth=2;rounded=0;fontSize=12;startSize=8;endSize=8;curved=1;exitX=0;exitY=1;exitDx=0;exitDy=0;entryX=0;entryY=1;entryDx=0;entryDy=0;" parent="1" source="Kc1Ey1qXZjIb0-rs8Q-b-33" target="Kc1Ey1qXZjIb0-rs8Q-b-38" edge="1">
          <mxGeometry width="50" height="50" relative="1" as="geometry">
            <mxPoint x="630" y="800" as="sourcePoint" />
            <mxPoint x="680" y="750" as="targetPoint" />
          </mxGeometry>
        </mxCell>
        <mxCell id="Kc1Ey1qXZjIb0-rs8Q-b-86" value="" style="endArrow=none;dashed=1;html=1;dashPattern=1 3;strokeWidth=2;rounded=0;fontSize=12;startSize=8;endSize=8;curved=1;entryX=1;entryY=1;entryDx=0;entryDy=0;exitX=1;exitY=1;exitDx=0;exitDy=0;" parent="1" source="Kc1Ey1qXZjIb0-rs8Q-b-33" target="Kc1Ey1qXZjIb0-rs8Q-b-38" edge="1">
          <mxGeometry width="50" height="50" relative="1" as="geometry">
            <mxPoint x="630" y="800" as="sourcePoint" />
            <mxPoint x="680" y="750" as="targetPoint" />
          </mxGeometry>
        </mxCell>
        <mxCell id="Kc1Ey1qXZjIb0-rs8Q-b-87" value="" style="endArrow=none;dashed=1;html=1;dashPattern=1 3;strokeWidth=2;rounded=0;fontSize=12;startSize=8;endSize=8;curved=1;exitX=1;exitY=1;exitDx=0;exitDy=0;entryX=1;entryY=1;entryDx=0;entryDy=0;" parent="1" source="Kc1Ey1qXZjIb0-rs8Q-b-35" target="Kc1Ey1qXZjIb0-rs8Q-b-26" edge="1">
          <mxGeometry width="50" height="50" relative="1" as="geometry">
            <mxPoint x="630" y="800" as="sourcePoint" />
            <mxPoint x="680" y="750" as="targetPoint" />
          </mxGeometry>
        </mxCell>
        <mxCell id="Kc1Ey1qXZjIb0-rs8Q-b-88" value="" style="endArrow=none;dashed=1;html=1;dashPattern=1 3;strokeWidth=2;rounded=0;fontSize=12;startSize=8;endSize=8;curved=1;exitX=0;exitY=1;exitDx=0;exitDy=0;entryX=0;entryY=1;entryDx=0;entryDy=0;" parent="1" source="Kc1Ey1qXZjIb0-rs8Q-b-35" target="Kc1Ey1qXZjIb0-rs8Q-b-26" edge="1">
          <mxGeometry width="50" height="50" relative="1" as="geometry">
            <mxPoint x="630" y="800" as="sourcePoint" />
            <mxPoint x="680" y="750" as="targetPoint" />
          </mxGeometry>
        </mxCell>
        <mxCell id="Kc1Ey1qXZjIb0-rs8Q-b-89" value="" style="endArrow=classic;startArrow=classic;html=1;rounded=0;fontSize=12;startSize=8;endSize=8;curved=1;exitX=1;exitY=0.5;exitDx=0;exitDy=0;entryX=0;entryY=0.5;entryDx=0;entryDy=0;" parent="1" source="Kc1Ey1qXZjIb0-rs8Q-b-45" target="Kc1Ey1qXZjIb0-rs8Q-b-47" edge="1">
          <mxGeometry width="50" height="50" relative="1" as="geometry">
            <mxPoint x="630" y="1250" as="sourcePoint" />
            <mxPoint x="150" y="1230" as="targetPoint" />
          </mxGeometry>
        </mxCell>
        <mxCell id="Kc1Ey1qXZjIb0-rs8Q-b-91" value="" style="endArrow=classic;startArrow=classic;html=1;rounded=0;fontSize=12;startSize=8;endSize=8;curved=1;exitX=1;exitY=0.5;exitDx=0;exitDy=0;entryX=0;entryY=0.5;entryDx=0;entryDy=0;" parent="1" source="Kc1Ey1qXZjIb0-rs8Q-b-47" target="Kc1Ey1qXZjIb0-rs8Q-b-46" edge="1">
          <mxGeometry width="50" height="50" relative="1" as="geometry">
            <mxPoint x="630" y="1250" as="sourcePoint" />
            <mxPoint x="680" y="1200" as="targetPoint" />
          </mxGeometry>
        </mxCell>
        <mxCell id="Kc1Ey1qXZjIb0-rs8Q-b-92" value="" style="endArrow=classic;startArrow=classic;html=1;rounded=0;fontSize=12;startSize=8;endSize=8;curved=1;exitX=1;exitY=0.5;exitDx=0;exitDy=0;" parent="1" source="Kc1Ey1qXZjIb0-rs8Q-b-46" edge="1">
          <mxGeometry width="50" height="50" relative="1" as="geometry">
            <mxPoint x="630" y="1250" as="sourcePoint" />
            <mxPoint x="380" y="1230" as="targetPoint" />
          </mxGeometry>
        </mxCell>
        <mxCell id="Kc1Ey1qXZjIb0-rs8Q-b-93" value="" style="endArrow=classic;html=1;rounded=0;fontSize=12;startSize=8;endSize=8;curved=1;exitX=0;exitY=0.5;exitDx=0;exitDy=0;" parent="1" source="Kc1Ey1qXZjIb0-rs8Q-b-42" edge="1">
          <mxGeometry width="50" height="50" relative="1" as="geometry">
            <mxPoint x="630" y="1250" as="sourcePoint" />
            <mxPoint x="40" y="1230" as="targetPoint" />
          </mxGeometry>
        </mxCell>
        <mxCell id="Kc1Ey1qXZjIb0-rs8Q-b-94" value="" style="endArrow=classic;html=1;rounded=0;fontSize=12;startSize=8;endSize=8;curved=1;entryX=0;entryY=0.5;entryDx=0;entryDy=0;exitX=0;exitY=0.5;exitDx=0;exitDy=0;" parent="1" source="Kc1Ey1qXZjIb0-rs8Q-b-42" target="Kc1Ey1qXZjIb0-rs8Q-b-45" edge="1">
          <mxGeometry width="50" height="50" relative="1" as="geometry">
            <mxPoint x="630" y="1250" as="sourcePoint" />
            <mxPoint x="680" y="1200" as="targetPoint" />
          </mxGeometry>
        </mxCell>
        <mxCell id="Kc1Ey1qXZjIb0-rs8Q-b-95" value="" style="endArrow=classic;html=1;rounded=0;fontSize=12;startSize=8;endSize=8;curved=1;entryX=1;entryY=0.5;entryDx=0;entryDy=0;exitX=0;exitY=0.154;exitDx=0;exitDy=0;exitPerimeter=0;" parent="1" source="Kc1Ey1qXZjIb0-rs8Q-b-43" target="Kc1Ey1qXZjIb0-rs8Q-b-48" edge="1">
          <mxGeometry width="50" height="50" relative="1" as="geometry">
            <mxPoint x="630" y="1250" as="sourcePoint" />
            <mxPoint x="680" y="1200" as="targetPoint" />
          </mxGeometry>
        </mxCell>
        <mxCell id="Kc1Ey1qXZjIb0-rs8Q-b-96" value="" style="endArrow=classic;html=1;rounded=0;fontSize=12;startSize=8;endSize=8;curved=1;exitX=0.003;exitY=0.15;exitDx=0;exitDy=0;exitPerimeter=0;entryX=0;entryY=0.25;entryDx=0;entryDy=0;fillColor=#008a00;strokeColor=#005700;" parent="1" source="Kc1Ey1qXZjIb0-rs8Q-b-43" target="Kc1Ey1qXZjIb0-rs8Q-b-50" edge="1">
          <mxGeometry width="50" height="50" relative="1" as="geometry">
            <mxPoint x="630" y="1250" as="sourcePoint" />
            <mxPoint x="680" y="1200" as="targetPoint" />
          </mxGeometry>
        </mxCell>
        <mxCell id="Kc1Ey1qXZjIb0-rs8Q-b-97" value="" style="endArrow=classic;html=1;rounded=0;fontSize=12;startSize=8;endSize=8;curved=1;entryX=0;entryY=0.5;entryDx=0;entryDy=0;exitX=0;exitY=0.75;exitDx=0;exitDy=0;fillColor=#008a00;strokeColor=#005700;" parent="1" source="Kc1Ey1qXZjIb0-rs8Q-b-43" target="Kc1Ey1qXZjIb0-rs8Q-b-52" edge="1">
          <mxGeometry width="50" height="50" relative="1" as="geometry">
            <mxPoint x="630" y="1250" as="sourcePoint" />
            <mxPoint x="680" y="1200" as="targetPoint" />
          </mxGeometry>
        </mxCell>
        <mxCell id="Kc1Ey1qXZjIb0-rs8Q-b-98" value="" style="endArrow=classic;startArrow=classic;html=1;rounded=0;fontSize=12;startSize=8;endSize=8;curved=1;exitX=0.5;exitY=0;exitDx=0;exitDy=0;entryX=0.5;entryY=1;entryDx=0;entryDy=0;" parent="1" source="Kc1Ey1qXZjIb0-rs8Q-b-52" target="Kc1Ey1qXZjIb0-rs8Q-b-50" edge="1">
          <mxGeometry width="50" height="50" relative="1" as="geometry">
            <mxPoint x="630" y="1250" as="sourcePoint" />
            <mxPoint x="680" y="1200" as="targetPoint" />
          </mxGeometry>
        </mxCell>
        <mxCell id="Kc1Ey1qXZjIb0-rs8Q-b-99" value="" style="endArrow=none;dashed=1;html=1;dashPattern=1 3;strokeWidth=2;rounded=0;fontSize=12;startSize=8;endSize=8;curved=1;entryX=0.446;entryY=-0.002;entryDx=0;entryDy=0;entryPerimeter=0;exitX=0.453;exitY=1.004;exitDx=0;exitDy=0;exitPerimeter=0;" parent="1" source="Kc1Ey1qXZjIb0-rs8Q-b-43" target="Kc1Ey1qXZjIb0-rs8Q-b-43" edge="1">
          <mxGeometry width="50" height="50" relative="1" as="geometry">
            <mxPoint x="630" y="1250" as="sourcePoint" />
            <mxPoint x="680" y="1200" as="targetPoint" />
          </mxGeometry>
        </mxCell>
        <mxCell id="Kc1Ey1qXZjIb0-rs8Q-b-103" value="" style="endArrow=classic;html=1;rounded=0;fontSize=12;startSize=8;endSize=8;curved=1;exitX=0.75;exitY=0;exitDx=0;exitDy=0;entryX=0.5;entryY=0;entryDx=0;entryDy=0;fillColor=#008a00;strokeColor=#005700;" parent="1" source="Kc1Ey1qXZjIb0-rs8Q-b-43" target="Kc1Ey1qXZjIb0-rs8Q-b-51" edge="1">
          <mxGeometry width="50" height="50" relative="1" as="geometry">
            <mxPoint x="630" y="1250" as="sourcePoint" />
            <mxPoint x="680" y="1200" as="targetPoint" />
          </mxGeometry>
        </mxCell>
        <mxCell id="Kc1Ey1qXZjIb0-rs8Q-b-104" value="" style="endArrow=classic;html=1;rounded=0;fontSize=12;startSize=8;endSize=8;curved=1;exitX=0.25;exitY=0;exitDx=0;exitDy=0;entryX=0.5;entryY=0;entryDx=0;entryDy=0;fillColor=#008a00;strokeColor=#005700;" parent="1" source="Kc1Ey1qXZjIb0-rs8Q-b-43" target="Kc1Ey1qXZjIb0-rs8Q-b-50" edge="1">
          <mxGeometry width="50" height="50" relative="1" as="geometry">
            <mxPoint x="630" y="1250" as="sourcePoint" />
            <mxPoint x="680" y="1200" as="targetPoint" />
          </mxGeometry>
        </mxCell>
        <mxCell id="Kc1Ey1qXZjIb0-rs8Q-b-105" value="" style="endArrow=classic;html=1;rounded=0;fontSize=12;startSize=8;endSize=8;curved=1;entryX=0.005;entryY=0.46;entryDx=0;entryDy=0;entryPerimeter=0;fillColor=#008a00;strokeColor=#005700;" parent="1" target="Kc1Ey1qXZjIb0-rs8Q-b-51" edge="1">
          <mxGeometry width="50" height="50" relative="1" as="geometry">
            <mxPoint x="770" y="1320" as="sourcePoint" />
            <mxPoint x="680" y="1200" as="targetPoint" />
          </mxGeometry>
        </mxCell>
        <mxCell id="Kc1Ey1qXZjIb0-rs8Q-b-106" value="" style="endArrow=classic;html=1;rounded=0;fontSize=12;startSize=8;endSize=8;curved=1;entryX=1;entryY=0.5;entryDx=0;entryDy=0;fillColor=#008a00;strokeColor=#005700;" parent="1" target="Kc1Ey1qXZjIb0-rs8Q-b-51" edge="1">
          <mxGeometry width="50" height="50" relative="1" as="geometry">
            <mxPoint x="1130" y="1330" as="sourcePoint" />
            <mxPoint x="680" y="1200" as="targetPoint" />
          </mxGeometry>
        </mxCell>
        <mxCell id="Kc1Ey1qXZjIb0-rs8Q-b-107" value="" style="endArrow=classic;html=1;rounded=0;fontSize=12;startSize=8;endSize=8;curved=1;entryX=0.5;entryY=1;entryDx=0;entryDy=0;exitX=0.75;exitY=1;exitDx=0;exitDy=0;fillColor=#008a00;strokeColor=#005700;" parent="1" source="Kc1Ey1qXZjIb0-rs8Q-b-43" target="Kc1Ey1qXZjIb0-rs8Q-b-51" edge="1">
          <mxGeometry width="50" height="50" relative="1" as="geometry">
            <mxPoint x="630" y="1250" as="sourcePoint" />
            <mxPoint x="680" y="1200" as="targetPoint" />
          </mxGeometry>
        </mxCell>
        <mxCell id="Kc1Ey1qXZjIb0-rs8Q-b-108" value="" style="endArrow=classic;html=1;rounded=0;fontSize=12;startSize=8;endSize=8;curved=1;entryX=0.5;entryY=1;entryDx=0;entryDy=0;fillColor=#008a00;strokeColor=#005700;" parent="1" target="Kc1Ey1qXZjIb0-rs8Q-b-52" edge="1">
          <mxGeometry width="50" height="50" relative="1" as="geometry">
            <mxPoint x="650" y="1470" as="sourcePoint" />
            <mxPoint x="680" y="1200" as="targetPoint" />
          </mxGeometry>
        </mxCell>
        <mxCell id="Kc1Ey1qXZjIb0-rs8Q-b-109" value="" style="endArrow=none;dashed=1;html=1;dashPattern=1 3;strokeWidth=2;rounded=0;fontSize=12;startSize=8;endSize=8;curved=1;entryX=0;entryY=1;entryDx=0;entryDy=0;exitX=0;exitY=1;exitDx=0;exitDy=0;" parent="1" source="Kc1Ey1qXZjIb0-rs8Q-b-49" target="Kc1Ey1qXZjIb0-rs8Q-b-43" edge="1">
          <mxGeometry width="50" height="50" relative="1" as="geometry">
            <mxPoint x="630" y="1250" as="sourcePoint" />
            <mxPoint x="680" y="1200" as="targetPoint" />
          </mxGeometry>
        </mxCell>
        <mxCell id="Kc1Ey1qXZjIb0-rs8Q-b-110" value="" style="endArrow=none;dashed=1;html=1;dashPattern=1 3;strokeWidth=2;rounded=0;fontSize=12;startSize=8;endSize=8;curved=1;entryX=0;entryY=1;entryDx=0;entryDy=0;exitX=0;exitY=1;exitDx=0;exitDy=0;" parent="1" source="Kc1Ey1qXZjIb0-rs8Q-b-49" target="Kc1Ey1qXZjIb0-rs8Q-b-42" edge="1">
          <mxGeometry width="50" height="50" relative="1" as="geometry">
            <mxPoint x="630" y="1250" as="sourcePoint" />
            <mxPoint x="680" y="1200" as="targetPoint" />
          </mxGeometry>
        </mxCell>
        <mxCell id="Kc1Ey1qXZjIb0-rs8Q-b-111" value="" style="endArrow=classic;html=1;rounded=0;fontSize=12;startSize=8;endSize=8;curved=1;exitX=1;exitY=1;exitDx=0;exitDy=0;entryX=0.982;entryY=0.056;entryDx=0;entryDy=0;entryPerimeter=0;fillColor=#60a917;strokeColor=#2D7600;" parent="1" source="Kc1Ey1qXZjIb0-rs8Q-b-42" target="Kc1Ey1qXZjIb0-rs8Q-b-49" edge="1">
          <mxGeometry width="50" height="50" relative="1" as="geometry">
            <mxPoint x="630" y="1250" as="sourcePoint" />
            <mxPoint x="680" y="1200" as="targetPoint" />
          </mxGeometry>
        </mxCell>
        <mxCell id="Kc1Ey1qXZjIb0-rs8Q-b-112" value="" style="endArrow=classic;html=1;rounded=0;fontSize=12;startSize=8;endSize=8;curved=1;exitX=0;exitY=0.5;exitDx=0;exitDy=0;" parent="1" source="Kc1Ey1qXZjIb0-rs8Q-b-56" edge="1">
          <mxGeometry width="50" height="50" relative="1" as="geometry">
            <mxPoint x="630" y="1610" as="sourcePoint" />
            <mxPoint x="950" y="1560" as="targetPoint" />
          </mxGeometry>
        </mxCell>
        <mxCell id="Kc1Ey1qXZjIb0-rs8Q-b-113" value="" style="endArrow=classic;html=1;rounded=0;fontSize=12;startSize=8;endSize=8;curved=1;exitX=1;exitY=0.5;exitDx=0;exitDy=0;" parent="1" source="Kc1Ey1qXZjIb0-rs8Q-b-56" target="Kc1Ey1qXZjIb0-rs8Q-b-16" edge="1">
          <mxGeometry width="50" height="50" relative="1" as="geometry">
            <mxPoint x="630" y="1610" as="sourcePoint" />
            <mxPoint x="680" y="1560" as="targetPoint" />
          </mxGeometry>
        </mxCell>
        <mxCell id="Kc1Ey1qXZjIb0-rs8Q-b-114" value="" style="endArrow=none;dashed=1;html=1;dashPattern=1 3;strokeWidth=2;rounded=0;fontSize=12;startSize=8;endSize=8;curved=1;entryX=0.818;entryY=0.01;entryDx=0;entryDy=0;entryPerimeter=0;exitX=0.82;exitY=1.024;exitDx=0;exitDy=0;exitPerimeter=0;" parent="1" source="Kc1Ey1qXZjIb0-rs8Q-b-16" target="Kc1Ey1qXZjIb0-rs8Q-b-16" edge="1">
          <mxGeometry width="50" height="50" relative="1" as="geometry">
            <mxPoint x="630" y="1610" as="sourcePoint" />
            <mxPoint x="680" y="1560" as="targetPoint" />
          </mxGeometry>
        </mxCell>
        <mxCell id="Kc1Ey1qXZjIb0-rs8Q-b-115" value="" style="endArrow=classic;html=1;rounded=0;fontSize=12;startSize=8;endSize=8;curved=1;entryX=0.952;entryY=0.02;entryDx=0;entryDy=0;entryPerimeter=0;" parent="1" target="Kc1Ey1qXZjIb0-rs8Q-b-59" edge="1">
          <mxGeometry width="50" height="50" relative="1" as="geometry">
            <mxPoint x="950" y="1480" as="sourcePoint" />
            <mxPoint x="680" y="1560" as="targetPoint" />
          </mxGeometry>
        </mxCell>
        <mxCell id="Kc1Ey1qXZjIb0-rs8Q-b-116" value="" style="endArrow=classic;html=1;rounded=0;fontSize=12;startSize=8;endSize=8;curved=1;entryX=1;entryY=1;entryDx=0;entryDy=0;" parent="1" target="Kc1Ey1qXZjIb0-rs8Q-b-59" edge="1">
          <mxGeometry width="50" height="50" relative="1" as="geometry">
            <mxPoint x="950" y="1640" as="sourcePoint" />
            <mxPoint x="680" y="1560" as="targetPoint" />
          </mxGeometry>
        </mxCell>
        <mxCell id="Kc1Ey1qXZjIb0-rs8Q-b-117" value="" style="endArrow=classic;html=1;rounded=0;fontSize=12;startSize=8;endSize=8;curved=1;entryX=0;entryY=0;entryDx=0;entryDy=0;exitX=0;exitY=0;exitDx=0;exitDy=0;" parent="1" source="Kc1Ey1qXZjIb0-rs8Q-b-16" target="Kc1Ey1qXZjIb0-rs8Q-b-61" edge="1">
          <mxGeometry width="50" height="50" relative="1" as="geometry">
            <mxPoint x="630" y="1610" as="sourcePoint" />
            <mxPoint x="680" y="1560" as="targetPoint" />
          </mxGeometry>
        </mxCell>
        <mxCell id="Kc1Ey1qXZjIb0-rs8Q-b-119" value="" style="endArrow=classic;html=1;rounded=0;fontSize=12;startSize=8;endSize=8;curved=1;entryX=0;entryY=0.5;entryDx=0;entryDy=0;exitX=0;exitY=0.5;exitDx=0;exitDy=0;fillColor=#1ba1e2;strokeColor=#006EAF;" parent="1" source="Kc1Ey1qXZjIb0-rs8Q-b-1" target="Kc1Ey1qXZjIb0-rs8Q-b-2" edge="1">
          <mxGeometry width="50" height="50" relative="1" as="geometry">
            <mxPoint x="630" y="160" as="sourcePoint" />
            <mxPoint x="680" y="110" as="targetPoint" />
          </mxGeometry>
        </mxCell>
        <mxCell id="Kc1Ey1qXZjIb0-rs8Q-b-120" value="" style="endArrow=classic;html=1;rounded=0;fontSize=12;startSize=8;endSize=8;curved=1;entryX=1;entryY=0.5;entryDx=0;entryDy=0;exitX=1;exitY=0.5;exitDx=0;exitDy=0;fillColor=#1ba1e2;strokeColor=#006EAF;" parent="1" source="Kc1Ey1qXZjIb0-rs8Q-b-1" target="Kc1Ey1qXZjIb0-rs8Q-b-118" edge="1">
          <mxGeometry width="50" height="50" relative="1" as="geometry">
            <mxPoint x="630" y="160" as="sourcePoint" />
            <mxPoint x="680" y="110" as="targetPoint" />
          </mxGeometry>
        </mxCell>
        <mxCell id="Kc1Ey1qXZjIb0-rs8Q-b-121" value="" style="endArrow=classic;startArrow=classic;html=1;rounded=0;fontSize=12;startSize=8;endSize=8;curved=1;exitX=1;exitY=0.5;exitDx=0;exitDy=0;entryX=0;entryY=0.5;entryDx=0;entryDy=0;fillColor=#a0522d;strokeColor=#6D1F00;" parent="1" source="Kc1Ey1qXZjIb0-rs8Q-b-2" target="Kc1Ey1qXZjIb0-rs8Q-b-3" edge="1">
          <mxGeometry width="50" height="50" relative="1" as="geometry">
            <mxPoint x="630" y="160" as="sourcePoint" />
            <mxPoint x="680" y="110" as="targetPoint" />
          </mxGeometry>
        </mxCell>
        <mxCell id="Kc1Ey1qXZjIb0-rs8Q-b-122" value="" style="endArrow=classic;startArrow=classic;html=1;rounded=0;fontSize=12;startSize=8;endSize=8;curved=1;exitX=1;exitY=0.5;exitDx=0;exitDy=0;entryX=0;entryY=0.5;entryDx=0;entryDy=0;fillColor=#e3c800;strokeColor=#B09500;" parent="1" target="Kc1Ey1qXZjIb0-rs8Q-b-118" edge="1">
          <mxGeometry width="50" height="50" relative="1" as="geometry">
            <mxPoint x="810" y="39.33" as="sourcePoint" />
            <mxPoint x="930" y="39.33" as="targetPoint" />
          </mxGeometry>
        </mxCell>
        <mxCell id="Kc1Ey1qXZjIb0-rs8Q-b-123" value="Bigger" style="edgeLabel;html=1;align=center;verticalAlign=middle;resizable=0;points=[];fontSize=16;" parent="Kc1Ey1qXZjIb0-rs8Q-b-122" vertex="1" connectable="0">
          <mxGeometry x="-0.038" y="1" relative="1" as="geometry">
            <mxPoint as="offset" />
          </mxGeometry>
        </mxCell>
        <mxCell id="Kc1Ey1qXZjIb0-rs8Q-b-126" value="" style="endArrow=classic;html=1;rounded=0;fontSize=12;startSize=8;endSize=8;curved=1;entryX=0;entryY=0;entryDx=0;entryDy=0;exitX=0;exitY=0;exitDx=0;exitDy=0;" parent="1" source="Kc1Ey1qXZjIb0-rs8Q-b-3" target="Kc1Ey1qXZjIb0-rs8Q-b-4" edge="1">
          <mxGeometry width="50" height="50" relative="1" as="geometry">
            <mxPoint x="630" y="320" as="sourcePoint" />
            <mxPoint x="680" y="270" as="targetPoint" />
          </mxGeometry>
        </mxCell>
      </root>
    </mxGraphModel>
  </diagram>
</mxfile>
